<svg xmlns="http://www.w3.org/2000/svg" viewBox="0 0 185 37" fill="none">
  <path fill="#000" d="M184.5 18.5c0-.8-.7-1.5-1.5-1.5l-35-20c-.7-.4-1.5-.3-2.1.2l-15 10c-.6.4-1.5.3-2.1-.2L46 2.8c-.7-.4-1.5-.3-2.1.2l-35 20c-.7.4-1.1 1.1-1.1 1.9 0 .8.4 1.5 1.1 1.9l35 20c.6.4 1.4.5 2.1.2l15-10c.6-.4 1.5-.3 2.1.2l15 10c.6.4 1.4.5 2.1.2l35-20c.7-.4 1.1-1.1 1.1-1.9Z"/>
  <path fill="#fff" d="M75.5 27.8c0-.4.3-.7.7-.7s.7.3.7.7c0 2.2 0 4.5 0 6.7-.4 0-.7-.3-.7-.7 0-1.8 0-3.7 0-5.5-.3-.1-.5-.3-.5-.6.2-.3.5-.5.9-.5.5 0 .9.4.9.9 0 2.4 0 4.7 0 7.1-.4 0-.8-.3-.8-.7 0-2.1 0-4.3 0-6.4-.3-.2-.5-.5-.5-.9.2-.4.6-.6 1-.6.6 0 1.1.5 1.1 1.1 0 2.6 0 5.2 0 7.8-.4 0-.8-.3-.8-.7 0-2.3 0-4.6 0-6.9-.3-.3-.5-.7-.5-1.1.3-.4.8-.7 1.3-.7.7 0 1.2.6 1.2 1.3 0 2.9 0 5.7 0 8.6-.4 0-.8-.3-.8-.7 0-2.5 0-5 0-7.5-.4-.4-.6-.9-.6-1.4.4-.5 1.1-.8 1.8-.8.8 0 1.5.7 1.5 1.5 0 3.3 0 6.5 0 9.8-.5 0-1-.3-1-.8 0-2.8 0-5.6 0-8.4-.5-.5-.8-1.2-.8-2 .5-.6 1.3-1 2.1-1 .9 0 1.7.7 1.7 1.7 0 3.7 0 7.4 0 11.1-.5 0-1-.3-1-.8 0-3 0-6.1 0-9.1-.5-.6-.7-1.3-.7-2.1.5-.7 1.5-1.2 2.5-1.2 1.1 0 2.1.9 2.1 2.1 0 4.1 0 8.2 0 12.3-.5 0-1-.3-1-.8 0-3.4 0-6.7 0-10.1-.6-.7-.8-1.6-.8-2.5.6-.8 1.8-1.4 3-1.4 1.3 0 2.4 1.1 2.4 2.4 0 4.5 0 9.1 0 13.6-.5 0-1-.3-1-.8 0-3.7 0-7.4 0-11.1-.6-.8-.7-1.7-.7-2.7.7-1 1.9-1.6 3.3-1.6 1.5 0 2.8 1.3 2.8 2.8 0 5.1 0 10.1 0 15.2-.5 0-1-.3-1-.8 0-4.1 0-8.1 0-12.2-.7-1-.6-2.2-.6-3.3.8-1.2 2.2-1.9 3.8-1.9 1.8 0 3.3 1.5 3.3 3.3 0 5.6 0 11.3 0 16.9-.5 0-1-.3-1-.8 0-4.4 0-8.8 0-13.2-.8-1.1-.5-2.4-.5-3.7.9-1.3 2.4-2.1 4.2-2.1 2 0 3.7 1.7 3.7 3.7 0 6.1 0 12.2 0 18.3-.6 0-1.1-.4-1.1-.9v-18c0-.5.4-.9.9-.9.3 0 .5.1.7.3l4.5 3c.3.2.7.2 1 0l4.5-3c.2-.2.4-.3.7-.3.5 0 .9.4.9.9v18c0 .5-.5.9-1.1.9 0-6.8 0-13.7 0-20.5 0-2.4-2-4.4-4.4-4.4-1.3 0-2.4.6-3.1 1.5l-3.3 2.2v-8.7c0-.5.4-.9.9-.9.3 0 .5.1.7.3l2.2 1.5c.2.2.6.2.8 0l2.2-1.5c.2-.2.4-.3.7-.3.5 0 .9.4.9.9v8.5l-3.3 2.2c-.8.5-1.8.9-2.9.9-1.1 0-2.2-.4-3.1-1.1-.9-.7-1.5-1.7-1.5-2.9v-11c0-.5.4-.9.9-.9.3 0 .5.1.7.3l2.2 1.5c.2.2.6.2.8 0l2.2-1.5c.2-.2.4-.3.7-.3.5 0 .9.4.9.9v10.8l3.3 2.2c.8.5 1.8.9 2.9.9 2.6 0 4.7-2.1 4.7-4.7v-18c0-.5.4-.9.9-.9.3 0 .5.1.7.3l4.5 3c.3.2.7.2 1 0l4.5-3c.2-.2.4-.3.7-.3.5 0 .9.4.9.9v18c0 3.2-2.6 5.8-5.8 5.8-2.9 0-5.3-2.1-5.8-4.9h-.1c-.3 1.3-.9 2.5-1.9 3.4-1.1.9-2.5 1.5-4.1 1.5zm-24.7-6.3c0-.4.3-.7.7-.7s.7.3.7.7c0 2.2 0 4.5 0 6.7-.4 0-.7-.3-.7-.7 0-1.8 0-3.7 0-5.5-.3-.1-.5-.3-.5-.6.2-.3.5-.5.9-.5.5 0 .9.4.9.9 0 2.4 0 4.7 0 7.1-.4 0-.8-.3-.8-.7 0-2.1 0-4.3 0-6.4-.3-.2-.5-.5-.5-.9.2-.4.6-.6 1-.6.6 0 1.1.5 1.1 1.1 0 2.6 0 5.2 0 7.8-.4 0-.8-.3-.8-.7 0-2.3 0-4.6 0-6.9-.3-.3-.5-.7-.5-1.1.3-.4.8-.7 1.3-.7.7 0 1.2.6 1.2 1.3 0 2.9 0 5.7 0 8.6-.4 0-.8-.3-.8-.7 0-2.5 0-5 0-7.5-.4-.4-.6-.9-.6-1.4.4-.5 1.1-.8 1.8-.8.8 0 1.5.7 1.5 1.5 0 3.3 0 6.5 0 9.8-.5 0-1-.3-1-.8 0-2.8 0-5.6 0-8.4-.5-.5-.8-1.2-.8-2 .5-.6 1.3-1 2.1-1 .9 0 1.7.7 1.7 1.7 0 3.7 0 7.4 0 11.1-.5 0-1-.3-1-.8 0-3 0-6.1 0-9.1-.5-.6-.7-1.3-.7-2.1.5-.7 1.5-1.2 2.5-1.2 1.1 0 2.1.9 2.1 2.1 0 4.1 0 8.2 0 12.3-.5 0-1-.3-1-.8 0-3.4 0-6.7 0-10.1-.6-.7-.8-1.6-.8-2.5.6-.8 1.8-1.4 3-1.4 1.3 0 2.4 1.1 2.4 2.4 0 4.5 0 9.1 0 13.6-.5 0-1-.3-1-.8 0-3.7 0-7.4 0-11.1-.6-.8-.7-1.7-.7-2.7.7-1 1.9-1.6 3.3-1.6 1.5 0 2.8 1.3 2.8 2.8 0 5.1 0 10.1 0 15.2-.5 0-1-.3-1-.8 0-4.1 0-8.1 0-12.2-.7-1-.6-2.2-.6-3.3.8-1.2 2.2-1.9 3.8-1.9 1.8 0 3.3 1.5 3.3 3.3 0 5.6 0 11.3 0 16.9-.5 0-1-.3-1-.8 0-4.4 0-8.8 0-13.2-.8-1.1-.5-2.4-.5-3.7.9-1.3 2.4-2.1 4.2-2.1 2 0 3.7 1.7 3.7 3.7 0 6.1 0 12.2 0 18.3-.6 0-1.1-.4-1.1-.9v-18c0-.5.4-.9.9-.9.3 0 .5.1.7.3l4.5 3c.3.2.7.2 1 0l4.5-3c.2-.2.4-.3.7-.3.5 0 .9.4.9.9v18c0 .5-.5.9-1.1.9 0-6.8 0-13.7 0-20.5 0-2.4-2-4.4-4.4-4.4-1.3 0-2.4.6-3.1 1.5l-3.3 2.2v-8.7c0-.5.4-.9.9-.9.3 0 .5.1.7.3l2.2 1.5c.2.2.6.2.8 0l2.2-1.5c.2-.2.4-.3.7-.3.5 0 .9.4.9.9v8.5l-3.3 2.2c-.8.5-1.8.9-2.9.9-1.1 0-2.2-.4-3.1-1.1-.9-.7-1.5-1.7-1.5-2.9v-11c0-.5.4-.9.9-.9.3 0 .5.1.7.3l2.2 1.5c.2.2.6.2.8 0l2.2-1.5c.2-.2.4-.3.7-.3.5 0 .9.4.9.9v10.8l3.3 2.2c.8.5 1.8.9 2.9.9 2.6 0 4.7-2.1 4.7-4.7v-18c0-.5.4-.9.9-.9.3 0 .5.1.7.3l4.5 3c.3.2.7.2 1 0l4.5-3c.2-.2.4-.3.7-.3.5 0 .9.4.9.9v18c0 3.2-2.6 5.8-5.8 5.8-2.9 0-5.3-2.1-5.8-4.9h-.1c-.3 1.3-.9 2.5-1.9 3.4-1.1.9-2.5 1.5-4.1 1.5zM88.2 14.2c-1.1 0-2.1.9-2.1 2.1v11.9c0 1.2.9 2.1 2.1 2.1s2.1-.9 2.1-2.1V16.3c0-1.2-.9-2.1-2.1-2.1zm1.6 14c0 .3-.3.6-.6.6s-.6-.3-.6-.6V16.3c0-.3.3-.6.6-.6s.6.3.6.6v11.9zM100.7 14.2c-1.1 0-2.1.9-2.1 2.1v11.9c0 1.2.9 2.1 2.1 2.1s2.1-.9 2.1-2.1V16.3c0-1.2-.9-2.1-2.1-2.1zm1.6 14c0 .3-.3.6-.6.6s-.6-.3-.6-.6V16.3c0-.3.3-.6.6-.6s.6.3.6.6v11.9zM113.2 14.2c-1.1 0-2.1.9-2.1 2.1v11.9c0 1.2.9 2.1 2.1 2.1s2.1-.9 2.1-2.1V16.3c0-1.2-.9-2.1-2.1-2.1zm1.6 14c0 .3-.3.6-.6.6s-.6-.3-.6-.6V16.3c0-.3.3-.6.6-.6s.6.3.6.6v11.9zM125.7 14.2c-1.1 0-2.1.9-2.1 2.1v11.9c0 1.2.9 2.1 2.1 2.1s2.1-.9 2.1-2.1V16.3c0-1.2-.9-2.1-2.1-2.1zm1.6 14c0 .3-.3.6-.6.6s-.6-.3-.6-.6V16.3c0-.3.3-.6.6-.6s.6.3.6.6v11.9zM138.2 14.2c-1.1 0-2.1.9-2.1 2.1v11.9c0 1.2.9 2.1 2.1 2.1s2.1-.9 2.1-2.1V16.3c0-1.2-.9-2.1-2.1-2.1zm1.6 14c0 .3-.3.6-.6.6s-.6-.3-.6-.6V16.3c0-.3.3-.6.6-.6s.6.3.6.6v11.9zM150.7 14.2c-1.1 0-2.1.9-2.1 2.1v11.9c0 1.2.9 2.1 2.1 2.1s2.1-.9 2.1-2.1V16.3c0-1.2-.9-2.1-2.1-2.1zm1.6 14c0 .3-.3.6-.6.6s-.6-.3-.6-.6V16.3c0-.3.3-.6.6-.6s.6.3.6.6v11.9zM163.2 14.2c-1.1 0-2.1.9-2.1 2.1v11.9c0 1.2.9 2.1 2.1 2.1s2.1-.9 2.1-2.1V16.3c0-1.2-.9-2.1-2.1-2.1zm1.6 14c0 .3-.3.6-.6.6s-.6-.3-.6-.6V16.3c0-.3.3-.6.6-.6s.6.3.6.6v11.9zM175.7 14.2c-1.1 0-2.1.9-2.1 2.1v11.9c0 1.2.9 2.1 2.1 2.1s2.1-.9 2.1-2.1V16.3c0-1.2-.9-2.1-2.1-2.1zm1.6 14c0 .3-.3.6-.6.6s-.6-.3-.6-.6V16.3c0-.3.3-.6.6-.6s.6.3.6.6v11.9z"/>
</svg>
